<?xml version="1.0" encoding="UTF-8"?>
<!-- Generated by Pixelmator Pro 3.5.11 -->
<svg width="180" height="180" viewBox="0 0 180 180" xmlns="http://www.w3.org/2000/svg">
    <g id="Pokeball">
        <linearGradient id="linearGradient1" x1="17.911708" y1="119.427665" x2="163.6411" y2="60.420671" gradientUnits="userSpaceOnUse">
            <stop offset="0" stop-color="#ffffff" stop-opacity="1"/>
            <stop offset="1" stop-color="#a9a38c" stop-opacity="1"/>
        </linearGradient>
        <path id="OuterBall" fill="url(#linearGradient1)" fill-rule="evenodd" stroke="#000000" stroke-width="2.4" stroke-linecap="round" stroke-linejoin="round" d="M 168.599991 90 C 168.599991 46.590424 133.409576 11.400009 90 11.400009 C 46.59042 11.400009 11.4 46.590424 11.4 90 C 11.4 133.409576 46.59042 168.600006 90 168.600006 C 133.409576 168.600006 168.599991 133.409576 168.599991 90 Z"/>
        <linearGradient id="linearGradient2" x1="160.190281" y1="71.503804" x2="19.809719" y2="34.19545" gradientUnits="userSpaceOnUse">
            <stop offset="0" stop-color="#dc2b20" stop-opacity="1"/>
            <stop offset="1" stop-color="#dc5262" stop-opacity="1"/>
        </linearGradient>
        <path id="OuterBall-Kopie" fill="url(#linearGradient2)" fill-rule="evenodd" stroke="#000000" stroke-width="1.8" stroke-linecap="round" stroke-linejoin="round" d="M 168.600006 90 C 168.600006 46.590424 133.409576 11.399994 90 11.399994 C 46.590416 11.399994 11.4 46.590424 11.4 90 C 11.4 94.199997 25.015564 90.356827 42.599998 90 C 57.43504 89.698967 72.315002 90 90 90 C 112.401001 90 131.16011 89.205742 146.399994 90 C 159.115143 90.662674 168.600006 99.333061 168.600006 90 Z"/>
        <path id="Rechteckige-Ecke" fill="#000000" fill-rule="evenodd" stroke="#000000" stroke-width="2.4" stroke-linecap="round" stroke-linejoin="round" d="M 12.6 94.800003 L 12.6 85.903847 L 57.080765 85.903847 L 118.760773 85.903847 L 166.800003 85.903847 L 166.800003 94.800003 L 57.080765 94.800003 Z"/>
        <linearGradient id="linearGradient3" x1="89.274424" y1="117.342101" x2="89.274424" y2="65.79433" gradientUnits="userSpaceOnUse">
            <stop offset="0" stop-color="#e6e3e5" stop-opacity="1"/>
            <stop offset="1" stop-color="#e6dee9" stop-opacity="1"/>
        </linearGradient>
        <path id="Center-Button" fill="url(#linearGradient3)" fill-rule="evenodd" stroke="#000000" stroke-width="1.8" stroke-linecap="round" stroke-linejoin="round" d="M 110.400002 90.300003 C 110.400002 78.867706 101.132294 69.599998 89.699997 69.599998 C 78.267708 69.599998 69 78.867706 69 90.300003 C 69 101.732292 78.267708 111 89.699997 111 C 101.132294 111 110.400002 101.732292 110.400002 90.300003 Z"/>
    </g>
</svg>
