<?xml version="1.0" encoding="UTF-8"?>
<!-- Generated by Pixelmator Pro 3.5.11 -->
<svg width="300" height="300" viewBox="0 0 300 300" xmlns="http://www.w3.org/2000/svg">
    <linearGradient id="linearGradient1" x1="29.852846" y1="199.046108" x2="272.735166" y2="100.701119" gradientUnits="userSpaceOnUse">
        <stop offset="0" stop-color="#ffffff" stop-opacity="1"/>
        <stop offset="1" stop-color="#a9a38c" stop-opacity="1"/>
    </linearGradient>
    <path id="OuterBall" fill="url(#linearGradient1)" fill-rule="evenodd" stroke="#000000" stroke-width="4" stroke-linecap="round" stroke-linejoin="round" d="M 281 150 C 281 77.650696 222.349304 19 150 19 C 77.650696 19 19 77.650696 19 150 C 19 222.349304 77.650696 281 150 281 C 222.349304 281 281 222.349304 281 150 Z"/>
    <linearGradient id="linearGradient2" x1="266.983802" y1="119.173007" x2="33.016198" y2="56.992417" gradientUnits="userSpaceOnUse">
        <stop offset="0" stop-color="#dc2b20" stop-opacity="1"/>
        <stop offset="1" stop-color="#dc5262" stop-opacity="1"/>
    </linearGradient>
    <path id="OuterBall-Kopie" fill="url(#linearGradient2)" fill-rule="evenodd" stroke="#000000" stroke-width="3" stroke-linecap="round" stroke-linejoin="round" d="M 281 150 C 281 77.650696 222.349304 19 150 19 C 77.650696 19 19 77.650696 19 150 C 19 157 41.692608 150.594711 71 150 C 95.725067 149.498276 120.525002 150 150 150 C 187.335007 150 218.600189 148.676239 244 150 C 265.191895 151.104462 281 165.555099 281 150 Z"/>
    <path id="Rechteckige-Ecke" fill="#000000" fill-rule="evenodd" stroke="#000000" stroke-width="4" stroke-linecap="round" stroke-linejoin="round" d="M 21 158 L 21 143.17308 L 95.134613 143.17308 L 197.934616 143.17308 L 278 143.17308 L 278 158 L 95.134613 158 Z"/>
    <linearGradient id="linearGradient3" x1="148.790707" y1="195.570168" x2="148.790707" y2="109.657217" gradientUnits="userSpaceOnUse">
        <stop offset="0" stop-color="#e6e3e5" stop-opacity="1"/>
        <stop offset="1" stop-color="#e6dee9" stop-opacity="1"/>
    </linearGradient>
    <path id="Center-Button" fill="url(#linearGradient3)" fill-rule="evenodd" stroke="#000000" stroke-width="3" stroke-linecap="round" stroke-linejoin="round" d="M 184 150.5 C 184 131.446167 168.553833 116 149.5 116 C 130.446182 116 115 131.446167 115 150.5 C 115 169.553818 130.446182 185 149.5 185 C 168.553833 185 184 169.553818 184 150.5 Z"/>
</svg>
