<?xml version="1.0" encoding="UTF-8"?>
<!-- Generated by Pixelmator Pro 3.5.11 -->
<svg width="330" height="330" viewBox="0 0 330 330" xmlns="http://www.w3.org/2000/svg">
    <path id="Ellipse" fill="#949494" fill-rule="evenodd" stroke="none" d="M 318 165.5 C 318 82.410889 249.051849 15.053864 164 15.053864 C 78.948151 15.053864 10 82.410889 10 165.5 C 10 248.589111 78.948151 315.946167 164 315.946167 C 249.051849 315.946167 318 248.589111 318 165.5 Z"/>
    <g id="Gruppe">
        <g id="Transparent" opacity="0.586732">
            <linearGradient id="linearGradient1" x1="22.758319" y1="223.657251" x2="308.284067" y2="108.045596" gradientUnits="userSpaceOnUse">
                <stop offset="1e-05" stop-color="#ffffff" stop-opacity="1"/>
                <stop offset="1" stop-color="#a9a38c" stop-opacity="1"/>
            </linearGradient>
            <path id="OuterBall" fill="url(#linearGradient1)" fill-rule="evenodd" stroke="#000000" stroke-width="4.70229" stroke-linecap="round" stroke-linejoin="round" d="M 317.999969 166 C 317.999969 80.948166 249.051834 12.000031 164 12.000031 C 78.948158 12.000031 10.000011 80.948166 10.000011 166 C 10.000011 251.051834 78.948158 320 164 320 C 249.051834 320 317.999969 251.051834 317.999969 166 Z"/>
            <linearGradient id="linearGradient2" x1="301.522921" y1="129.760638" x2="26.477068" y2="56.662854" gradientUnits="userSpaceOnUse">
                <stop offset="1e-05" stop-color="#dc2b20" stop-opacity="1"/>
                <stop offset="1" stop-color="#dc5262" stop-opacity="1"/>
            </linearGradient>
            <path id="OuterBall-Kopie" fill="url(#linearGradient2)" fill-rule="evenodd" stroke="#000000" stroke-width="3.526717" stroke-linecap="round" stroke-linejoin="round" d="M 318 166 C 318 80.948166 249.051834 12 164 12 C 78.948151 12 10.000011 80.948166 10.000011 166 C 10.000011 174.229004 36.676815 166.699127 71.129776 166 C 100.195877 165.410187 129.350006 166 164 166 C 207.889984 166 244.64447 164.443817 274.503784 166 C 299.416412 167.29837 318 184.286148 318 166 Z"/>
            <path id="Rechteckige-Ecke" fill="#000000" fill-rule="evenodd" stroke="#000000" stroke-width="4.70229" stroke-linecap="round" stroke-linejoin="round" d="M 12.351158 175.404587 L 12.351158 157.974457 L 99.501755 157.974457 L 220.350616 157.974457 L 314.473267 157.974457 L 314.473267 175.404587 L 99.501755 175.404587 Z"/>
            <linearGradient id="linearGradient3" x1="162.578383" y1="219.571031" x2="162.578383" y2="118.574138" gradientUnits="userSpaceOnUse">
                <stop offset="1e-05" stop-color="#e6e3e5" stop-opacity="1"/>
                <stop offset="1" stop-color="#e6dee9" stop-opacity="1"/>
            </linearGradient>
            <path id="Center-Button" fill="url(#linearGradient3)" fill-rule="evenodd" stroke="#000000" stroke-width="3.526717" stroke-linecap="round" stroke-linejoin="round" d="M 203.969452 166.587799 C 203.969452 144.188644 185.811356 126.030533 163.412201 126.030533 C 141.013062 126.030533 122.854958 144.188644 122.854958 166.587799 C 122.854958 188.986938 141.013062 207.145035 163.412201 207.145035 C 185.811356 207.145035 203.969452 188.986938 203.969452 166.587799 Z"/>
        </g>
    </g>
    <path id="Lautsprecher" fill="#000000" fill-rule="evenodd" stroke="none" d="M 264.869995 256.032837 C 262.598145 259.188477 258.21814 259.944336 255.02002 257.732788 C 253.487061 256.687622 252.439697 255.069092 252.114258 253.242554 C 251.788696 251.415894 252.212524 249.535278 253.290039 248.02478 C 288.903198 198.398193 288.903198 131.587402 253.290039 81.960815 C 252.212524 80.450317 251.788696 78.569702 252.114258 76.743042 C 252.439697 74.916504 253.487061 73.297974 255.02002 72.252808 C 258.21814 70.04126 262.598145 70.797119 264.869995 73.952759 C 303.712891 128.431396 303.712891 201.554199 264.869995 256.032837 Z M 219 232.72583 C 217.465942 231.677368 216.418335 230.055908 216.092896 228.226563 C 215.767456 226.397217 216.19165 224.513916 217.27002 223.000854 C 242.243286 188.362793 242.243286 141.628784 217.27002 106.990723 C 216.19165 105.477661 215.767456 103.59436 216.092896 101.765015 C 216.418335 99.935669 217.465942 98.314209 219 97.265747 C 222.205566 95.051636 226.593628 95.810059 228.869995 98.971802 C 257.043335 138.479492 257.043335 191.511963 228.869995 231.019775 C 226.593628 234.181519 222.205566 234.939941 219 232.72583 Z M 183.02002 207.740845 C 181.481934 206.687622 180.431274 205.060791 180.104126 203.225586 C 179.776978 201.390381 180.200684 199.50061 181.280029 197.980835 C 195.573242 178.313354 195.573242 151.678101 181.280029 132.010742 C 180.200684 130.490967 179.776978 128.601196 180.104126 126.765991 C 180.431274 124.930786 181.481934 123.303955 183.02002 122.250732 C 186.228394 120.028442 190.626343 120.790405 192.900024 123.962769 C 210.366577 148.529907 210.366577 181.461548 192.900024 206.028809 C 190.626343 209.201172 186.228394 209.963135 183.02002 207.740845 Z M 139 249.99585 C 136.32312 250.000244 133.737183 249.025024 131.72998 247.253784 C 129.439941 245.237793 85 202.99585 85 202.99585 L 53 202.99585 C 43.611206 202.99585 36 195.384644 36 185.995728 L 36 143.995728 C 36 134.606934 43.611206 126.995728 53 126.995728 L 85 126.995728 C 85 126.995728 129.439941 84.753784 131.72998 82.737793 C 134.974243 79.880615 139.591309 79.188721 143.53064 80.969238 C 147.469971 82.749878 150.001099 86.672729 150 90.995728 L 150 238.99585 C 150 245.070923 145.075073 249.99585 139 249.99585 Z"/>
</svg>
