<?xml version="1.0" encoding="UTF-8"?>
<!-- Generated by Pixelmator Pro 3.5.11 -->
<svg width="100" height="100" viewBox="0 0 100 100" xmlns="http://www.w3.org/2000/svg">
    <linearGradient id="linearGradient1" x1="49.095395" y1="107.481065" x2="49.095395" y2="-2.088661" gradientUnits="userSpaceOnUse">
        <stop offset="0" stop-color="#e6e3e5" stop-opacity="1"/>
        <stop offset="1" stop-color="#e6dee9" stop-opacity="1"/>
    </linearGradient>
    <path id="Zahnrad" fill="url(#linearGradient1)" fill-rule="evenodd" stroke="#000000" stroke-width="3" stroke-linecap="round" stroke-linejoin="round" d="M 90.589149 58.306759 C 87.962807 58.925144 84.302925 59.786724 81.383263 60.473331 C 80.889328 61.950924 80.292091 63.391914 79.595978 64.785675 C 81.175201 67.335297 83.153473 70.53331 84.575813 72.828804 C 85.660484 74.582672 85.831024 76.393501 83.76403 78.460815 L 78.460136 83.766052 C 76.393181 85.833366 74.582001 85.661118 72.828857 84.575447 C 70.533318 83.15448 67.333939 81.17482 64.786041 79.595612 C 63.391884 80.29248 61.950016 80.889503 60.471302 81.382202 C 59.785717 84.300873 58.926216 87.961731 58.30542 90.58947 C 57.834717 92.597427 56.675022 94.00032 53.751938 94.00032 L 46.248062 94.00032 C 43.324978 94.00032 42.165283 92.598114 41.69458 90.58947 C 41.073784 87.963104 40.214283 84.300873 39.528698 81.382202 C 38.049984 80.889503 36.608116 80.29248 35.213963 79.595612 C 32.666065 81.173798 29.466682 83.153458 27.171144 84.575447 C 25.418003 85.661118 23.606819 85.833366 21.539865 83.766052 L 16.235971 78.460815 C 14.168976 76.393501 14.339519 74.582672 15.424188 72.828804 C 16.846529 70.53331 18.824799 67.335297 20.404024 64.785675 C 19.707905 63.391914 19.110674 61.950924 18.616741 60.473331 C 15.697073 59.786724 12.037213 58.925144 9.410852 58.306759 C 7.401855 57.834354 6 56.675697 6 53.752258 L 6 46.248718 C 6 43.325279 7.401855 42.166603 9.410852 41.694195 C 12.037213 41.075813 15.697073 40.21423 18.616741 39.527626 C 19.110674 38.050053 19.707905 36.609062 20.404024 35.215286 C 18.824799 32.66568 16.846529 29.467674 15.424188 27.17215 C 14.339519 25.418304 14.168976 23.607475 16.235971 21.540169 L 21.539865 16.234917 C 23.606819 14.167587 25.418003 14.339844 27.171144 15.425529 C 29.466682 16.846474 32.666065 18.826141 35.213963 20.405365 C 36.608116 19.708496 38.049984 19.11145 39.528698 18.618767 C 40.214283 15.700104 41.073784 12.039223 41.69458 9.411507 C 42.165283 7.403534 43.324978 6.000656 46.248062 6.000656 L 53.751938 6.000656 C 56.675022 6.000656 57.834717 7.402863 58.30542 9.411507 C 58.926216 12.037865 59.785717 15.700104 60.471302 18.618767 C 61.950016 19.11145 63.391884 19.708496 64.786041 20.405365 C 67.333939 18.827156 70.533318 16.847519 72.828857 15.425529 C 74.582001 14.339844 76.393181 14.167587 78.460136 16.234917 L 83.76403 21.540169 C 85.831024 23.607475 85.660484 25.418304 84.575813 27.17215 C 83.153473 29.467674 81.175201 32.66568 79.595978 35.215286 C 80.292091 36.609062 80.889328 38.050053 81.383263 39.527626 C 84.302925 40.21423 87.962807 41.075813 90.589149 41.694195 C 92.598145 42.166603 94 43.325279 94 46.248718 L 94 53.752594 C 94 56.675697 92.598145 57.834354 90.589149 58.306759 Z M 50 32.946388 C 40.581184 32.946388 32.945736 40.581837 32.945736 50.000656 C 32.945736 59.419472 40.581184 67.054916 50 67.054916 C 59.418816 67.054916 67.05426 59.419472 67.05426 50.000656 C 67.05426 40.581837 59.418816 32.946388 50 32.946388 Z"/>
</svg>
